<svg width="59" height="54" viewBox="0 0 59 54" fill="none" xmlns="http://www.w3.org/2000/svg">
<path d="M26.3926 26.856L44.4086 8.52405C39.7978 3.8324 33.4284 0.930664 26.3926 0.930664C12.3214 0.930664 0.914307 12.5377 0.914307 26.856C0.914307 41.2163 12.2799 52.7814 26.3927 52.7814C40.1183 52.7814 51.3091 41.7375 51.8506 27.9061C51.873 27.3339 51.4263 26.856 50.8636 26.856H26.3926Z" fill="#C39774"/>
<path opacity="0.15" d="M39.5226 8.40062C40.0278 8.40062 40.4374 7.9839 40.4374 7.46984C40.4374 6.95579 40.0278 6.53906 39.5226 6.53906C39.0174 6.53906 38.6079 6.95579 38.6079 7.46984C38.6079 7.9839 39.0174 8.40062 39.5226 8.40062Z" fill="black"/>
<path opacity="0.15" d="M22.4213 4.29906C22.9265 4.29906 23.3361 3.88233 23.3361 3.36828C23.3361 2.85422 22.9265 2.4375 22.4213 2.4375C21.9161 2.4375 21.5066 2.85422 21.5066 3.36828C21.5066 3.88233 21.9161 4.29906 22.4213 4.29906Z" fill="black"/>
<path opacity="0.15" d="M9.13177 14.4748C9.63696 14.4748 10.0465 14.0581 10.0465 13.5441C10.0465 13.03 9.63696 12.6133 9.13177 12.6133C8.62658 12.6133 8.21704 13.03 8.21704 13.5441C8.21704 14.0581 8.62658 14.4748 9.13177 14.4748Z" fill="black"/>
<path opacity="0.15" d="M5.51117 38.2903C6.01636 38.2903 6.4259 37.8735 6.4259 37.3595C6.4259 36.8454 6.01636 36.4287 5.51117 36.4287C5.00597 36.4287 4.59644 36.8454 4.59644 37.3595C4.59644 37.8735 5.00597 38.2903 5.51117 38.2903Z" fill="black"/>
<path opacity="0.15" d="M21.507 48.7873C22.0122 48.7873 22.4217 48.3706 22.4217 47.8566C22.4217 47.3425 22.0122 46.9258 21.507 46.9258C21.0018 46.9258 20.5923 47.3425 20.5923 47.8566C20.5923 48.3706 21.0018 48.7873 21.507 48.7873Z" fill="black"/>
<path opacity="0.15" d="M37.5117 48.4153C38.0168 48.4153 38.4264 47.9985 38.4264 47.4845C38.4264 46.9704 38.0168 46.5537 37.5117 46.5537C37.0065 46.5537 36.5969 46.9704 36.5969 47.4845C36.5969 47.9985 37.0065 48.4153 37.5117 48.4153Z" fill="black"/>
<path opacity="0.15" d="M47.8242 36.6799C48.3293 36.6799 48.7389 36.2632 48.7389 35.7491C48.7389 35.2351 48.3293 34.8184 47.8242 34.8184C47.319 34.8184 46.9094 35.2351 46.9094 35.7491C46.9094 36.2632 47.319 36.6799 47.8242 36.6799Z" fill="black"/>
<path d="M5.75488 26.8553C5.75488 38.4532 14.9948 47.8553 26.3928 47.8553C37.7907 47.8553 47.0306 38.4532 47.0306 26.8553H26.3927L40.9858 12.0061C37.2512 8.20598 32.0917 5.85547 26.3927 5.85547C14.9948 5.85547 5.75488 15.2574 5.75488 26.8553Z" fill="#FDD05F"/>
<path opacity="0.1" d="M26.3928 5.85547C14.9948 5.85547 5.75488 15.2575 5.75488 26.8554C5.75488 27.1379 5.76191 27.4187 5.77286 27.6984C6.20787 16.4915 15.2724 7.54161 26.3927 7.54161C31.6699 7.54161 36.4839 9.55818 40.1329 12.8741L40.9857 12.0063C37.2512 8.20587 32.0917 5.85547 26.3928 5.85547Z" fill="black"/>
<path d="M35.5981 26.8555C35.5981 28.7178 37.0819 30.2276 38.9122 30.2276C40.7424 30.2276 42.2262 28.7178 42.2262 26.8555H35.5981Z" fill="#DE2A4E"/>
<path d="M38.5737 14.4613C37.2795 13.1444 35.1811 13.1444 33.8869 14.4613C32.5927 15.7782 32.5927 17.9134 33.8869 19.2303L38.5737 14.4613Z" fill="#DE2A4E"/>
<path d="M28.8018 15.9846C30.6319 15.9846 32.1154 14.475 32.1154 12.6129C32.1154 10.7508 30.6319 9.24121 28.8018 9.24121C26.9718 9.24121 25.4883 10.7508 25.4883 12.6129C25.4883 14.475 26.9718 15.9846 28.8018 15.9846Z" fill="#DE2A4E"/>
<path d="M15.5164 20.1428C17.3465 20.1428 18.83 18.6332 18.83 16.7711C18.83 14.909 17.3465 13.3994 15.5164 13.3994C13.6864 13.3994 12.2029 14.909 12.2029 16.7711C12.2029 18.6332 13.6864 20.1428 15.5164 20.1428Z" fill="#DE2A4E"/>
<path d="M12.4471 28.9934C14.2771 28.9934 15.7607 27.4838 15.7607 25.6217C15.7607 23.7596 14.2771 22.25 12.4471 22.25C10.6171 22.25 9.13354 23.7596 9.13354 25.6217C9.13354 27.4838 10.6171 28.9934 12.4471 28.9934Z" fill="#DE2A4E"/>
<path d="M23.7779 24.3098C25.608 24.3098 27.0915 22.8002 27.0915 20.9381C27.0915 19.076 25.608 17.5664 23.7779 17.5664C21.9479 17.5664 20.4644 19.076 20.4644 20.9381C20.4644 22.8002 21.9479 24.3098 23.7779 24.3098Z" fill="#DE2A4E"/>
<path d="M15.7606 39.3733C17.5906 39.3733 19.0742 37.8637 19.0742 36.0016C19.0742 34.1394 17.5906 32.6299 15.7606 32.6299C13.9306 32.6299 12.447 34.1394 12.447 36.0016C12.447 37.8637 13.9306 39.3733 15.7606 39.3733Z" fill="#DE2A4E"/>
<path d="M25.4869 36.0002C27.3169 36.0002 28.8005 34.4907 28.8005 32.6285C28.8005 30.7664 27.3169 29.2568 25.4869 29.2568C23.6569 29.2568 22.1733 30.7664 22.1733 32.6285C22.1733 34.4907 23.6569 36.0002 25.4869 36.0002Z" fill="#DE2A4E"/>
<path d="M27.034 45.1457C28.8641 45.1457 30.3476 43.6362 30.3476 41.774C30.3476 39.9119 28.8641 38.4023 27.034 38.4023C25.204 38.4023 23.7205 39.9119 23.7205 41.774C23.7205 43.6362 25.204 45.1457 27.034 45.1457Z" fill="#DE2A4E"/>
<path d="M37.5113 39.3733C39.3414 39.3733 40.8249 37.8637 40.8249 36.0016C40.8249 34.1394 39.3414 32.6299 37.5113 32.6299C35.6813 32.6299 34.1978 34.1394 34.1978 36.0016C34.1978 37.8637 35.6813 39.3733 37.5113 39.3733Z" fill="#DE2A4E"/>
<path opacity="0.15" d="M36.8893 36.3049C37.3945 36.3049 37.8041 35.8882 37.8041 35.3741C37.8041 34.8601 37.3945 34.4434 36.8893 34.4434C36.3841 34.4434 35.9746 34.8601 35.9746 35.3741C35.9746 35.8882 36.3841 36.3049 36.8893 36.3049Z" fill="black"/>
<path opacity="0.15" d="M25.6911 34.1145C26.1963 34.1145 26.6058 33.6978 26.6058 33.1837C26.6058 32.6697 26.1963 32.2529 25.6911 32.2529C25.1859 32.2529 24.7764 32.6697 24.7764 33.1837C24.7764 33.6978 25.1859 34.1145 25.6911 34.1145Z" fill="black"/>
<path opacity="0.15" d="M38.4267 29.0119C38.9319 29.0119 39.3414 28.5952 39.3414 28.0812C39.3414 27.5671 38.9319 27.1504 38.4267 27.1504C37.9215 27.1504 37.512 27.5671 37.512 28.0812C37.512 28.5952 37.9215 29.0119 38.4267 29.0119Z" fill="black"/>
<path opacity="0.15" d="M28.6374 14.4748C29.1426 14.4748 29.5521 14.0581 29.5521 13.5441C29.5521 13.03 29.1426 12.6133 28.6374 12.6133C28.1322 12.6133 27.7227 13.03 27.7227 13.5441C27.7227 14.0581 28.1322 14.4748 28.6374 14.4748Z" fill="black"/>
<path opacity="0.15" d="M13.3618 26.1721C13.8669 26.1721 14.2765 25.7554 14.2765 25.2413C14.2765 24.7273 13.8669 24.3105 13.3618 24.3105C12.8566 24.3105 12.447 24.7273 12.447 25.2413C12.447 25.7554 12.8566 26.1721 13.3618 26.1721Z" fill="black"/>
<path opacity="0.15" d="M15.2045 36.6799C15.7097 36.6799 16.1193 36.2632 16.1193 35.7491C16.1193 35.2351 15.7097 34.8184 15.2045 34.8184C14.6993 34.8184 14.2898 35.2351 14.2898 35.7491C14.2898 36.2632 14.6993 36.6799 15.2045 36.6799Z" fill="black"/>
<path opacity="0.1" d="M43.3179 7.47852L29.0093 22.0381H31.1274L44.4092 8.52327C44.056 8.16388 43.6912 7.81621 43.3179 7.47852Z" fill="black"/>
<path d="M39.1055 24.8064C38.3866 24.8064 37.8037 24.2133 37.8037 23.4817V20.5127H40.4072V23.4817C40.4072 24.2133 39.8245 24.8064 39.1055 24.8064Z" fill="#FDD05F"/>
<path d="M44.4751 23.8136C43.7562 23.8136 43.1733 23.2205 43.1733 22.4889V20.5127H45.7768V22.4889C45.7768 23.2205 45.1941 23.8136 44.4751 23.8136Z" fill="#FDD05F"/>
<path d="M51.3596 2.94006C50.9773 2.5184 50.3291 2.5 49.9304 2.9057L47.2201 5.66356L32.627 20.5128H57.0977C57.6593 20.5128 58.1072 20.0366 58.0849 19.4655C57.8363 13.098 55.3307 7.32086 51.3596 2.94006Z" fill="#C39774"/>
<path opacity="0.15" d="M52.7709 9.05101C53.2761 9.05101 53.6857 8.63429 53.6857 8.12023C53.6857 7.60618 53.2761 7.18945 52.7709 7.18945C52.2657 7.18945 51.8562 7.60618 51.8562 8.12023C51.8562 8.63429 52.2657 9.05101 52.7709 9.05101Z" fill="black"/>
<path d="M53.2649 20.5123C53.2649 14.7133 50.9549 9.46335 47.2202 5.66309L32.627 20.5123H53.2649Z" fill="#FDD05F"/>
<path d="M48.4594 20.5128C48.4594 18.6504 46.9756 17.1406 45.1453 17.1406C43.3151 17.1406 41.8313 18.6504 41.8313 20.5128H48.4594Z" fill="#DE2A4E"/>
<path d="M40.1201 12.8872C41.4143 14.2041 43.5127 14.2041 44.8069 12.8872C46.1011 11.5703 46.1011 9.43507 44.8069 8.11816L40.1201 12.8872Z" fill="#DE2A4E"/>
<path opacity="0.1" d="M40.4074 20.5137H37.804V21.7181H40.4074V20.5137Z" fill="black"/>
<path opacity="0.1" d="M45.7771 20.5137H43.1736V21.7181H45.7771V20.5137Z" fill="black"/>
<path d="M52.0316 2.30948C51.68 1.92171 51.1816 1.69306 50.6645 1.68239C50.1402 1.67266 49.6522 1.87258 49.2833 2.24803L44.3968 7.22039C39.4939 2.55806 33.1371 0 26.3932 0C19.3434 0 12.7155 2.79351 7.73038 7.866C2.74534 12.9385 0 19.6826 0 26.8561C0 34.0501 2.73993 40.7999 7.71483 45.8621C12.69 50.9244 19.3233 53.7122 26.3932 53.7122C33.2569 53.7122 39.7586 51.0446 44.7007 46.2009C49.6292 41.3704 52.4931 34.8864 52.7649 27.9433C52.7855 27.4174 52.5919 26.8983 52.2341 26.5193C51.8724 26.1364 51.3859 25.9254 50.864 25.9254H28.6013L33.0056 21.4439H36.8895V23.4822C36.8895 24.7258 37.8839 25.7375 39.1059 25.7375C40.3281 25.7375 41.3224 24.7257 41.3224 23.4822V21.4439H42.2595V22.4894C42.2595 23.733 43.2538 24.7447 44.4759 24.7447C45.698 24.7447 46.6923 23.7329 46.6923 22.4894V21.4439H57.0974C57.6197 21.4439 58.1067 21.2328 58.4687 20.8495C58.826 20.4713 59.019 19.9535 58.9985 19.4291C58.7503 13.0718 56.276 6.99198 52.0316 2.30948ZM50.8639 27.7869C50.8721 27.7869 50.894 27.7869 50.9149 27.809C50.9304 27.8254 50.9378 27.8456 50.9367 27.8691C50.6838 34.3301 48.0183 40.3643 43.4314 44.8601C38.8319 49.368 32.781 51.8506 26.3929 51.8506C19.8117 51.8506 13.6376 49.2565 9.0081 44.5457C4.37902 39.8352 1.82935 33.5528 1.82935 26.8561C1.82935 13.0739 12.8486 1.86156 26.3931 1.86156C32.6482 1.86156 38.5469 4.22497 43.1037 8.53624L40.9717 10.7056C36.9849 6.97205 31.8438 4.92569 26.3929 4.92569C14.5089 4.92569 4.84042 14.7637 4.84042 26.8563C4.84042 38.9489 14.5089 48.787 26.3929 48.787C37.9705 48.787 47.4436 39.4495 47.9246 27.787H50.8639V27.7869ZM31.9799 19.8551C31.9797 19.8552 31.9796 19.8553 31.9795 19.8554L25.7465 26.1978C25.4849 26.464 25.4065 26.8643 25.5482 27.2121C25.6898 27.56 26.0232 27.7866 26.3932 27.7866H46.0945C45.615 38.4225 36.962 46.9252 26.3932 46.9252C15.5178 46.9252 6.67 37.9222 6.67 26.856C6.67 15.7897 15.5177 6.78702 26.3931 6.78702C31.3552 6.78702 36.0373 8.63978 39.6775 12.0224L31.9799 19.8551ZM39.4929 23.4823C39.4929 23.6994 39.3192 23.8761 39.1058 23.8761C38.8924 23.8761 38.7188 23.6994 38.7188 23.4823V21.444H39.4929V23.4823ZM44.8628 22.4895C44.8628 22.7066 44.6892 22.8833 44.4758 22.8833C44.2623 22.8833 44.0887 22.7066 44.0887 22.4895V21.444H44.8628V22.4895ZM34.8348 19.5826L45.0557 9.18232C45.0557 9.18232 45.0558 9.1822 45.056 9.18209L47.2046 6.99573C50.324 10.4714 52.1188 14.8804 52.3284 19.5826H34.8348ZM57.1496 19.5597C57.1281 19.5826 57.105 19.5826 57.0973 19.5826H54.1587C53.9468 14.3833 51.962 9.50771 48.4988 5.67871L50.5768 3.56423C50.5826 3.55837 50.5983 3.54266 50.6275 3.54348C50.6505 3.54395 50.6703 3.55344 50.6868 3.5715H50.6867C54.6368 7.92921 56.9395 13.5872 57.1704 19.503C57.1709 19.5112 57.1719 19.5361 57.1496 19.5597Z" fill="black"/>
</svg>
