<svg width="186" height="48" viewBox="0 0 186 48" fill="none" xmlns="http://www.w3.org/2000/svg">
<rect width="186" height="48" fill="#161616"/>
<path d="M47.2217 17.4346H51.8711C52.8438 17.4346 53.6787 17.5811 54.376 17.874C55.0732 18.167 55.6094 18.6006 55.9844 19.1748C56.3594 19.749 56.5469 20.4551 56.5469 21.293C56.5469 21.9551 56.4297 22.5293 56.1953 23.0156C55.9609 23.502 55.6299 23.9092 55.2021 24.2373C54.7803 24.5654 54.2822 24.8232 53.708 25.0107L52.9521 25.3975H48.8477L48.8301 23.4902H51.8975C52.3955 23.4902 52.8086 23.4023 53.1367 23.2266C53.4648 23.0508 53.7109 22.8076 53.875 22.4971C54.0449 22.1865 54.1299 21.832 54.1299 21.4336C54.1299 21.0059 54.0479 20.6367 53.8838 20.3262C53.7197 20.0098 53.4707 19.7666 53.1367 19.5967C52.8027 19.4268 52.3809 19.3418 51.8711 19.3418H49.6387V30.2314H47.2217V17.4346ZM54.4463 30.2314L51.4844 24.501L54.042 24.4922L57.0391 30.1084V30.2314H54.4463ZM69.0273 23.5078V24.167C69.0273 25.1338 68.8984 26.0039 68.6406 26.7773C68.3828 27.5449 68.0166 28.1982 67.542 28.7373C67.0674 29.2764 66.502 29.6895 65.8457 29.9766C65.1895 30.2637 64.46 30.4072 63.6572 30.4072C62.8662 30.4072 62.1396 30.2637 61.4775 29.9766C60.8213 29.6895 60.2529 29.2764 59.7725 28.7373C59.292 28.1982 58.9199 27.5449 58.6562 26.7773C58.3926 26.0039 58.2607 25.1338 58.2607 24.167V23.5078C58.2607 22.5352 58.3926 21.665 58.6562 20.8975C58.9199 20.1299 59.2891 19.4766 59.7637 18.9375C60.2383 18.3926 60.8037 17.9766 61.46 17.6895C62.1221 17.4023 62.8486 17.2588 63.6396 17.2588C64.4424 17.2588 65.1719 17.4023 65.8281 17.6895C66.4844 17.9766 67.0498 18.3926 67.5244 18.9375C68.0049 19.4766 68.374 20.1299 68.6318 20.8975C68.8955 21.665 69.0273 22.5352 69.0273 23.5078ZM66.584 24.167V23.4902C66.584 22.793 66.5195 22.1807 66.3906 21.6533C66.2617 21.1201 66.0713 20.6719 65.8193 20.3086C65.5674 19.9453 65.2568 19.6729 64.8877 19.4912C64.5186 19.3037 64.1025 19.21 63.6396 19.21C63.1709 19.21 62.7549 19.3037 62.3916 19.4912C62.0342 19.6729 61.7295 19.9453 61.4775 20.3086C61.2256 20.6719 61.0322 21.1201 60.8975 21.6533C60.7686 22.1807 60.7041 22.793 60.7041 23.4902V24.167C60.7041 24.8584 60.7686 25.4707 60.8975 26.0039C61.0322 26.5371 61.2256 26.9883 61.4775 27.3574C61.7354 27.7207 62.0459 27.9961 62.4092 28.1836C62.7725 28.3711 63.1885 28.4648 63.6572 28.4648C64.126 28.4648 64.542 28.3711 64.9053 28.1836C65.2686 27.9961 65.5732 27.7207 65.8193 27.3574C66.0713 26.9883 66.2617 26.5371 66.3906 26.0039C66.5195 25.4707 66.584 24.8584 66.584 24.167ZM75.9795 24.5273H72.71L72.6924 22.8223H75.4961C75.9766 22.8223 76.3779 22.7549 76.7002 22.6201C77.0225 22.4854 77.2656 22.2891 77.4297 22.0312C77.5996 21.7734 77.6846 21.46 77.6846 21.0908C77.6846 20.6807 77.6055 20.3467 77.4473 20.0889C77.2949 19.8311 77.0547 19.6436 76.7266 19.5264C76.3984 19.4033 75.9824 19.3418 75.4785 19.3418H73.4922V30.2314H71.0752V17.4346H75.4785C76.2051 17.4346 76.8525 17.5049 77.4209 17.6455C77.9951 17.7803 78.4814 17.9912 78.8799 18.2783C79.2783 18.5654 79.5801 18.9258 79.7852 19.3594C79.9961 19.793 80.1016 20.3086 80.1016 20.9062C80.1016 21.4336 79.9785 21.9199 79.7324 22.3652C79.4922 22.8047 79.1201 23.1621 78.6162 23.4375C78.1182 23.7129 77.4854 23.8711 76.7178 23.9121L75.9795 24.5273ZM75.874 30.2314H71.998L73.0088 28.333H75.874C76.3545 28.333 76.75 28.2539 77.0605 28.0957C77.377 27.9375 77.6113 27.7207 77.7637 27.4453C77.9219 27.1641 78.001 26.8418 78.001 26.4785C78.001 26.0801 77.9307 25.7344 77.79 25.4414C77.6553 25.1484 77.4385 24.9229 77.1396 24.7646C76.8467 24.6064 76.46 24.5273 75.9795 24.5273H73.4658L73.4834 22.8223H76.6826L77.2363 23.4814C77.9746 23.4873 78.5752 23.6338 79.0381 23.9209C79.5068 24.208 79.8525 24.5771 80.0752 25.0283C80.2979 25.4795 80.4092 25.9658 80.4092 26.4873C80.4092 27.3076 80.2305 27.9961 79.873 28.5527C79.5215 29.1094 79.0059 29.5283 78.3262 29.8096C77.6523 30.0908 76.835 30.2314 75.874 30.2314ZM90.6221 28.333V30.2314H84.1885V28.333H90.6221ZM84.918 17.4346V30.2314H82.501V17.4346H84.918ZM102.021 23.5078V24.167C102.021 25.1338 101.893 26.0039 101.635 26.7773C101.377 27.5449 101.011 28.1982 100.536 28.7373C100.062 29.2764 99.4961 29.6895 98.8398 29.9766C98.1836 30.2637 97.4541 30.4072 96.6514 30.4072C95.8604 30.4072 95.1338 30.2637 94.4717 29.9766C93.8154 29.6895 93.2471 29.2764 92.7666 28.7373C92.2861 28.1982 91.9141 27.5449 91.6504 26.7773C91.3867 26.0039 91.2549 25.1338 91.2549 24.167V23.5078C91.2549 22.5352 91.3867 21.665 91.6504 20.8975C91.9141 20.1299 92.2832 19.4766 92.7578 18.9375C93.2324 18.3926 93.7979 17.9766 94.4541 17.6895C95.1162 17.4023 95.8428 17.2588 96.6338 17.2588C97.4365 17.2588 98.166 17.4023 98.8223 17.6895C99.4785 17.9766 100.044 18.3926 100.519 18.9375C100.999 19.4766 101.368 20.1299 101.626 20.8975C101.89 21.665 102.021 22.5352 102.021 23.5078ZM99.5781 24.167V23.4902C99.5781 22.793 99.5137 22.1807 99.3848 21.6533C99.2559 21.1201 99.0654 20.6719 98.8135 20.3086C98.5615 19.9453 98.251 19.6729 97.8818 19.4912C97.5127 19.3037 97.0967 19.21 96.6338 19.21C96.165 19.21 95.749 19.3037 95.3857 19.4912C95.0283 19.6729 94.7236 19.9453 94.4717 20.3086C94.2197 20.6719 94.0264 21.1201 93.8916 21.6533C93.7627 22.1807 93.6982 22.793 93.6982 23.4902V24.167C93.6982 24.8584 93.7627 25.4707 93.8916 26.0039C94.0264 26.5371 94.2197 26.9883 94.4717 27.3574C94.7295 27.7207 95.04 27.9961 95.4033 28.1836C95.7666 28.3711 96.1826 28.4648 96.6514 28.4648C97.1201 28.4648 97.5361 28.3711 97.8994 28.1836C98.2627 27.9961 98.5674 27.7207 98.8135 27.3574C99.0654 26.9883 99.2559 26.5371 99.3848 26.0039C99.5137 25.4707 99.5781 24.8584 99.5781 24.167ZM105.801 17.4346L108.358 21.9961L110.925 17.4346H113.702L109.905 23.7803L113.799 30.2314H110.995L108.358 25.582L105.73 30.2314H102.918L106.812 23.7803L103.015 17.4346H105.801ZM130.041 17.4346V30.2314H127.624V19.3418H122.21V30.2314H119.793V17.4346H130.041ZM134.699 26.918L138.162 20.7217H140.491V30.2314H138.162V24.0264L134.699 30.2314H132.37V20.7217H134.699V26.918ZM142.618 30.2314V20.7217H144.947V28.4033H148.401V20.7217H150.739V30.2314H142.618ZM152.093 28.4121L151.926 33.0527H149.772V30.2314H148.674V28.4121H152.093ZM153.517 30.2314V20.7217H155.846V28.4033H159.3V20.7217H161.638V30.2314H153.517ZM162.991 28.4121L162.824 33.0527H160.671V30.2314H159.572V28.4121H162.991ZM169.636 28.21V23.8242C169.636 23.502 169.58 23.2236 169.469 22.9893C169.357 22.7549 169.188 22.5732 168.959 22.4443C168.73 22.3154 168.44 22.251 168.089 22.251C167.778 22.251 167.506 22.3037 167.271 22.4092C167.043 22.5146 166.867 22.6641 166.744 22.8574C166.621 23.0449 166.56 23.2617 166.56 23.5078H164.23C164.23 23.1152 164.324 22.7432 164.512 22.3916C164.699 22.0342 164.966 21.7178 165.312 21.4424C165.663 21.1611 166.082 20.9414 166.568 20.7832C167.061 20.625 167.611 20.5459 168.221 20.5459C168.941 20.5459 169.583 20.6689 170.146 20.915C170.714 21.1553 171.159 21.5186 171.481 22.0049C171.81 22.4912 171.974 23.1035 171.974 23.8418V27.9902C171.974 28.4648 172.003 28.8721 172.062 29.2119C172.126 29.5459 172.22 29.8359 172.343 30.082V30.2314H169.979C169.867 29.9912 169.782 29.6865 169.724 29.3174C169.665 28.9424 169.636 28.5732 169.636 28.21ZM169.961 24.4395L169.979 25.8193H168.511C168.147 25.8193 167.828 25.8574 167.553 25.9336C167.277 26.0039 167.052 26.1094 166.876 26.25C166.7 26.3848 166.568 26.5488 166.48 26.7422C166.393 26.9297 166.349 27.1436 166.349 27.3838C166.349 27.6182 166.401 27.8291 166.507 28.0166C166.618 28.2041 166.776 28.3535 166.981 28.4648C167.192 28.5703 167.438 28.623 167.72 28.623C168.13 28.623 168.487 28.541 168.792 28.377C169.097 28.207 169.334 28.002 169.504 27.7617C169.674 27.5215 169.765 27.293 169.776 27.0762L170.444 28.0781C170.362 28.3184 170.239 28.5732 170.075 28.8428C169.911 29.1123 169.7 29.3643 169.442 29.5986C169.185 29.833 168.874 30.0264 168.511 30.1787C168.147 30.3311 167.726 30.4072 167.245 30.4072C166.63 30.4072 166.079 30.2842 165.593 30.0381C165.106 29.792 164.723 29.4551 164.441 29.0273C164.16 28.5996 164.02 28.1133 164.02 27.5684C164.02 27.0645 164.113 26.6191 164.301 26.2324C164.488 25.8457 164.767 25.5205 165.136 25.2568C165.505 24.9873 165.962 24.7852 166.507 24.6504C167.058 24.5098 167.688 24.4395 168.396 24.4395H169.961Z" fill="white"/>
<path d="M22.3144 24.0002L32.0857 13.0786C29.585 10.2834 26.1304 8.55469 22.3144 8.55469C14.6825 8.55469 8.49561 15.4698 8.49561 24.0002C8.49561 32.5556 14.66 39.4457 22.3144 39.4457C29.7588 39.4457 35.8284 32.8661 36.122 24.6258C36.1342 24.2849 35.8919 24.0002 35.5867 24.0002H22.3144Z" fill="#C39774"/>
<path opacity="0.15" d="M29.4358 13.0055C29.7098 13.0055 29.9319 12.7573 29.9319 12.451C29.9319 12.1448 29.7098 11.8965 29.4358 11.8965C29.1618 11.8965 28.9397 12.1448 28.9397 12.451C28.9397 12.7573 29.1618 13.0055 29.4358 13.0055Z" fill="black"/>
<path opacity="0.15" d="M20.1607 10.5602C20.4347 10.5602 20.6568 10.312 20.6568 10.0057C20.6568 9.69944 20.4347 9.45117 20.1607 9.45117C19.8867 9.45117 19.6646 9.69944 19.6646 10.0057C19.6646 10.312 19.8867 10.5602 20.1607 10.5602Z" fill="black"/>
<path opacity="0.15" d="M12.9524 16.6227C13.2264 16.6227 13.4485 16.3745 13.4485 16.0682C13.4485 15.7619 13.2264 15.5137 12.9524 15.5137C12.6784 15.5137 12.4563 15.7619 12.4563 16.0682C12.4563 16.3745 12.6784 16.6227 12.9524 16.6227Z" fill="black"/>
<path opacity="0.15" d="M10.989 30.8141C11.263 30.8141 11.4852 30.5659 11.4852 30.2596C11.4852 29.9534 11.263 29.7051 10.989 29.7051C10.715 29.7051 10.4929 29.9534 10.4929 30.2596C10.4929 30.5659 10.715 30.8141 10.989 30.8141Z" fill="black"/>
<path opacity="0.15" d="M19.6651 37.0671C19.9391 37.0671 20.1612 36.8188 20.1612 36.5125C20.1612 36.2063 19.9391 35.958 19.6651 35.958C19.3911 35.958 19.1689 36.2063 19.1689 36.5125C19.1689 36.8188 19.3911 37.0671 19.6651 37.0671Z" fill="black"/>
<path opacity="0.15" d="M28.3455 36.8454C28.6195 36.8454 28.8416 36.5971 28.8416 36.2909C28.8416 35.9846 28.6195 35.7363 28.3455 35.7363C28.0715 35.7363 27.8494 35.9846 27.8494 36.2909C27.8494 36.5971 28.0715 36.8454 28.3455 36.8454Z" fill="black"/>
<path opacity="0.15" d="M33.9388 29.8532C34.2128 29.8532 34.4349 29.6049 34.4349 29.2987C34.4349 28.9924 34.2128 28.7441 33.9388 28.7441C33.6648 28.7441 33.4426 28.9924 33.4426 29.2987C33.4426 29.6049 33.6648 29.8532 33.9388 29.8532Z" fill="black"/>
<path d="M11.1216 24.0003C11.1216 30.91 16.1331 36.5114 22.315 36.5114C28.497 36.5114 33.5084 30.91 33.5084 24.0003H22.315L30.2299 15.1536C28.2043 12.8896 25.406 11.4893 22.315 11.4893C16.1331 11.4893 11.1216 17.0906 11.1216 24.0003Z" fill="#FDD05F"/>
<path opacity="0.1" d="M22.315 11.4893C16.1331 11.4893 11.1216 17.0907 11.1216 24.0004C11.1216 24.1687 11.1254 24.336 11.1313 24.5026C11.3673 17.8259 16.2836 12.4938 22.315 12.4938C25.1772 12.4938 27.7882 13.6952 29.7673 15.6707L30.2298 15.1537C28.2043 12.8895 25.406 11.4893 22.315 11.4893Z" fill="black"/>
<path d="M27.3074 24C27.3074 25.1095 28.1121 26.009 29.1048 26.009C30.0975 26.009 30.9022 25.1095 30.9022 24H27.3074Z" fill="#DE2A4E"/>
<path d="M28.9212 16.6158C28.2193 15.8312 27.0812 15.8312 26.3792 16.6158C25.6773 17.4003 25.6773 18.6724 26.3792 19.457L28.9212 16.6158Z" fill="#DE2A4E"/>
<path d="M23.6209 17.5234C24.6135 17.5234 25.4181 16.624 25.4181 15.5146C25.4181 14.4052 24.6135 13.5059 23.6209 13.5059C22.6284 13.5059 21.8237 14.4052 21.8237 15.5146C21.8237 16.624 22.6284 17.5234 23.6209 17.5234Z" fill="#DE2A4E"/>
<path d="M16.4156 19.9999C17.4082 19.9999 18.2128 19.1006 18.2128 17.9912C18.2128 16.8818 17.4082 15.9824 16.4156 15.9824C15.423 15.9824 14.6184 16.8818 14.6184 17.9912C14.6184 19.1006 15.423 19.9999 16.4156 19.9999Z" fill="#DE2A4E"/>
<path d="M14.7508 25.2734C15.7434 25.2734 16.548 24.374 16.548 23.2646C16.548 22.1552 15.7434 21.2559 14.7508 21.2559C13.7582 21.2559 12.9536 22.1552 12.9536 23.2646C12.9536 24.374 13.7582 25.2734 14.7508 25.2734Z" fill="#DE2A4E"/>
<path d="M20.8966 22.4833C21.8891 22.4833 22.6937 21.584 22.6937 20.4746C22.6937 19.3652 21.8891 18.4658 20.8966 18.4658C19.904 18.4658 19.0994 19.3652 19.0994 20.4746C19.0994 21.584 19.904 22.4833 20.8966 22.4833Z" fill="#DE2A4E"/>
<path d="M16.5482 31.457C17.5407 31.457 18.3454 30.5576 18.3454 29.4482C18.3454 28.3388 17.5407 27.4395 16.5482 27.4395C15.5556 27.4395 14.751 28.3388 14.751 29.4482C14.751 30.5576 15.5556 31.457 16.5482 31.457Z" fill="#DE2A4E"/>
<path d="M21.8233 29.4491C22.8159 29.4491 23.6205 28.5498 23.6205 27.4404C23.6205 26.331 22.8159 25.4316 21.8233 25.4316C20.8308 25.4316 20.0261 26.331 20.0261 27.4404C20.0261 28.5498 20.8308 29.4491 21.8233 29.4491Z" fill="#DE2A4E"/>
<path d="M22.6624 34.8964C23.655 34.8964 24.4596 33.9971 24.4596 32.8877C24.4596 31.7783 23.655 30.8789 22.6624 30.8789C21.6699 30.8789 20.8652 31.7783 20.8652 32.8877C20.8652 33.9971 21.6699 34.8964 22.6624 34.8964Z" fill="#DE2A4E"/>
<path d="M28.3453 31.457C29.3378 31.457 30.1425 30.5576 30.1425 29.4482C30.1425 28.3388 29.3378 27.4395 28.3453 27.4395C27.3527 27.4395 26.5481 28.3388 26.5481 29.4482C26.5481 30.5576 27.3527 31.457 28.3453 31.457Z" fill="#DE2A4E"/>
<path opacity="0.15" d="M28.0074 29.6296C28.2814 29.6296 28.5035 29.3813 28.5035 29.075C28.5035 28.7688 28.2814 28.5205 28.0074 28.5205C27.7334 28.5205 27.5112 28.7688 27.5112 29.075C27.5112 29.3813 27.7334 29.6296 28.0074 29.6296Z" fill="black"/>
<path opacity="0.15" d="M21.9344 28.3239C22.2084 28.3239 22.4305 28.0756 22.4305 27.7694C22.4305 27.4631 22.2084 27.2148 21.9344 27.2148C21.6604 27.2148 21.4382 27.4631 21.4382 27.7694C21.4382 28.0756 21.6604 28.3239 21.9344 28.3239Z" fill="black"/>
<path opacity="0.15" d="M28.8413 25.2858C29.1153 25.2858 29.3375 25.0375 29.3375 24.7313C29.3375 24.425 29.1153 24.1768 28.8413 24.1768C28.5673 24.1768 28.3452 24.425 28.3452 24.7313C28.3452 25.0375 28.5673 25.2858 28.8413 25.2858Z" fill="black"/>
<path opacity="0.15" d="M23.5325 16.6227C23.8065 16.6227 24.0286 16.3745 24.0286 16.0682C24.0286 15.7619 23.8065 15.5137 23.5325 15.5137C23.2585 15.5137 23.0364 15.7619 23.0364 16.0682C23.0364 16.3745 23.2585 16.6227 23.5325 16.6227Z" fill="black"/>
<path opacity="0.15" d="M15.2471 23.5915C15.5211 23.5915 15.7432 23.3432 15.7432 23.0369C15.7432 22.7307 15.5211 22.4824 15.2471 22.4824C14.9731 22.4824 14.751 22.7307 14.751 23.0369C14.751 23.3432 14.9731 23.5915 15.2471 23.5915Z" fill="black"/>
<path opacity="0.15" d="M16.2466 29.8532C16.5206 29.8532 16.7427 29.6049 16.7427 29.2987C16.7427 28.9924 16.5206 28.7441 16.2466 28.7441C15.9726 28.7441 15.7505 28.9924 15.7505 29.2987C15.7505 29.6049 15.9726 29.8532 16.2466 29.8532Z" fill="black"/>
<path opacity="0.1" d="M31.4943 12.457L23.7336 21.1312H24.8825L32.0861 13.0795C31.8946 12.8653 31.6967 12.6582 31.4943 12.457Z" fill="black"/>
<path d="M29.2095 22.7787C28.8195 22.7787 28.5034 22.4254 28.5034 21.9896V20.2207H29.9155V21.9896C29.9155 22.4254 29.5994 22.7787 29.2095 22.7787Z" fill="#FDD05F"/>
<path d="M32.1223 22.1873C31.7324 22.1873 31.4163 21.8339 31.4163 21.3981V20.2207H32.8283V21.3981C32.8283 21.8339 32.5123 22.1873 32.1223 22.1873Z" fill="#FDD05F"/>
<path d="M35.8559 9.75191C35.6486 9.5007 35.297 9.48973 35.0807 9.73144L33.6107 11.3745L25.6958 20.2212H38.9681C39.2727 20.2212 39.5156 19.9375 39.5035 19.5973C39.3687 15.8037 38.0097 12.3618 35.8559 9.75191Z" fill="#C39774"/>
<path opacity="0.15" d="M36.6214 13.3923C36.8954 13.3923 37.1175 13.144 37.1175 12.8377C37.1175 12.5315 36.8954 12.2832 36.6214 12.2832C36.3474 12.2832 36.1252 12.5315 36.1252 12.8377C36.1252 13.144 36.3474 13.3923 36.6214 13.3923Z" fill="black"/>
<path d="M36.8892 20.2207C36.8892 16.7658 35.6364 13.6381 33.6108 11.374L25.6958 20.2207H36.8892Z" fill="#FDD05F"/>
<path d="M34.2834 20.218C34.2834 19.1085 33.4786 18.209 32.4859 18.209C31.4932 18.209 30.6885 19.1085 30.6885 20.218H34.2834Z" fill="#DE2A4E"/>
<path d="M29.7603 15.6752C30.4622 16.4598 31.6003 16.4598 32.3023 15.6752C33.0042 14.8907 33.0042 13.6186 32.3023 12.834L29.7603 15.6752Z" fill="#DE2A4E"/>
<path opacity="0.1" d="M29.9165 20.2217H28.5044V20.9393H29.9165V20.2217Z" fill="black"/>
<path opacity="0.1" d="M32.8281 20.2217H31.416V20.9393H32.8281V20.2217Z" fill="black"/>
<path d="M36.2205 9.37591C36.0298 9.14489 35.7595 9.00867 35.4791 9.00231C35.1947 8.99652 34.93 9.11562 34.7299 9.33931L32.0796 12.3017C29.4204 9.52401 25.9727 8 22.3149 8C18.4913 8 14.8966 9.66428 12.1928 12.6863C9.489 15.7083 8 19.7263 8 24C8 28.286 9.48606 32.3073 12.1843 35.3232C14.8827 38.3391 18.4804 40 22.3149 40C26.0376 40 29.564 38.4107 32.2444 35.525C34.9175 32.6472 36.4708 28.7842 36.6183 24.6477C36.6294 24.3344 36.5244 24.0251 36.3304 23.7994C36.1342 23.5712 35.8703 23.4455 35.5873 23.4455H23.5126L25.9013 20.7756H28.0079V21.9899C28.0079 22.7308 28.5472 23.3336 29.21 23.3336C29.8729 23.3336 30.4121 22.7308 30.4121 21.9899V20.7756H30.9204V21.3984C30.9204 22.1393 31.4597 22.7421 32.1225 22.7421C32.7854 22.7421 33.3246 22.1393 33.3246 21.3984V20.7756H38.9681C39.2514 20.7756 39.5155 20.6498 39.7118 20.4215C39.9056 20.1961 40.0103 19.8876 39.9992 19.5752C39.8646 15.7878 38.5226 12.1656 36.2205 9.37591ZM35.5872 24.5545C35.5916 24.5545 35.6035 24.5545 35.6149 24.5677C35.6233 24.5775 35.6273 24.5895 35.6267 24.6035C35.4895 28.4528 34.0438 32.0478 31.556 34.7262C29.0614 37.4119 25.7795 38.8909 22.3148 38.8909C18.7453 38.8909 15.3967 37.3454 12.8858 34.5389C10.3751 31.7325 8.99219 27.9897 8.99219 24C8.99219 15.789 14.9688 9.10906 22.3149 9.10906C25.7075 9.10906 28.9068 10.5171 31.3783 13.0856L30.2219 14.3781C28.0596 12.1537 25.2712 10.9346 22.3148 10.9346C15.8693 10.9346 10.6253 16.7957 10.6253 24.0001C10.6253 31.2045 15.8693 37.0657 22.3148 37.0657C28.5942 37.0657 33.7321 31.5028 33.993 24.5546H35.5872V24.5545ZM25.345 19.829C25.3449 19.8291 25.3449 19.8292 25.3448 19.8292L21.9642 23.6078C21.8223 23.7664 21.7798 24.0049 21.8566 24.2121C21.9334 24.4194 22.1143 24.5544 22.3149 24.5544H33.0004C32.7403 30.8909 28.0472 35.9565 22.3149 35.9565C16.4164 35.9565 11.6176 30.5929 11.6176 23.9999C11.6176 17.407 16.4164 12.0435 22.3149 12.0435C25.0062 12.0435 27.5456 13.1473 29.52 15.1625L25.345 19.829ZM29.4199 21.99C29.4199 22.1194 29.3257 22.2246 29.2099 22.2246C29.0942 22.2246 29 22.1194 29 21.99V20.7757H29.4199V21.99ZM32.3324 21.3985C32.3324 21.5279 32.2382 21.6332 32.1224 21.6332C32.0067 21.6332 31.9125 21.5279 31.9125 21.3985V20.7757H32.3324V21.3985ZM26.8934 19.6667L32.437 13.4705C32.437 13.4705 32.4371 13.4705 32.4371 13.4704L33.6025 12.1678C35.2944 14.2385 36.2678 16.8653 36.3815 19.6667H26.8934ZM38.9964 19.6531C38.9848 19.6667 38.9722 19.6667 38.968 19.6667H37.3742C37.2593 16.5691 36.1828 13.6644 34.3044 11.3832L35.4315 10.1235C35.4346 10.12 35.4431 10.1106 35.459 10.1111C35.4714 10.1114 35.4822 10.117 35.4911 10.1278H35.4911C37.6335 12.724 38.8824 16.0948 39.0077 19.6192C39.0079 19.6241 39.0085 19.639 38.9964 19.6531Z" fill="black"/>
</svg>
