<svg width="320" height="58" viewBox="0 0 320 58" fill="none" xmlns="http://www.w3.org/2000/svg">
<g clip-path="url(#clip0_602_8)">
<rect width="320" height="58" fill="white"/>
<path d="M70.3755 5.11719H79.416C81.3073 5.11719 82.9308 5.40202 84.2866 5.97168C85.6424 6.54134 86.6849 7.38444 87.4141 8.50098C88.1432 9.61751 88.5078 10.9904 88.5078 12.6196C88.5078 13.9071 88.2799 15.0236 87.8242 15.9692C87.3685 16.9149 86.7248 17.7067 85.8931 18.3447C85.0728 18.9827 84.1043 19.484 82.9878 19.8486L81.5181 20.6006H73.5371L73.5029 16.8921H79.4673C80.4357 16.8921 81.2389 16.7212 81.877 16.3794C82.515 16.0376 82.9935 15.5648 83.3125 14.9609C83.6429 14.3571 83.8081 13.6678 83.8081 12.8931C83.8081 12.0614 83.6486 11.3436 83.3296 10.7397C83.0106 10.1245 82.5264 9.65169 81.877 9.32129C81.2275 8.99089 80.4072 8.82568 79.416 8.82568H75.0752V30H70.3755V5.11719ZM84.4233 30L78.6641 18.8574L83.6372 18.8403L89.4648 29.7607V30H84.4233ZM112.775 16.9263V18.208C112.775 20.0879 112.525 21.7798 112.023 23.2837C111.522 24.7762 110.81 26.0465 109.887 27.0947C108.964 28.1429 107.865 28.9461 106.589 29.5044C105.313 30.0627 103.894 30.3418 102.333 30.3418C100.795 30.3418 99.3826 30.0627 98.0952 29.5044C96.8192 28.9461 95.714 28.1429 94.7798 27.0947C93.8455 26.0465 93.1221 24.7762 92.6094 23.2837C92.0967 21.7798 91.8403 20.0879 91.8403 18.208V16.9263C91.8403 15.035 92.0967 13.3431 92.6094 11.8506C93.1221 10.3581 93.8398 9.08773 94.7627 8.03955C95.6855 6.97998 96.785 6.17106 98.061 5.61279C99.3485 5.05452 100.761 4.77539 102.299 4.77539C103.86 4.77539 105.279 5.05452 106.555 5.61279C107.831 6.17106 108.93 6.97998 109.853 8.03955C110.787 9.08773 111.505 10.3581 112.006 11.8506C112.519 13.3431 112.775 15.035 112.775 16.9263ZM108.024 18.208V16.8921C108.024 15.5363 107.899 14.3457 107.648 13.3203C107.398 12.2835 107.028 11.4119 106.538 10.7056C106.048 9.99919 105.444 9.4694 104.726 9.11621C104.008 8.75163 103.199 8.56934 102.299 8.56934C101.388 8.56934 100.579 8.75163 99.8726 9.11621C99.1776 9.4694 98.5851 9.99919 98.0952 10.7056C97.6053 11.4119 97.2293 12.2835 96.9673 13.3203C96.7166 14.3457 96.5913 15.5363 96.5913 16.8921V18.208C96.5913 19.5524 96.7166 20.743 96.9673 21.7798C97.2293 22.8166 97.6053 23.6938 98.0952 24.4116C98.5965 25.118 99.2004 25.6535 99.9067 26.0181C100.613 26.3826 101.422 26.5649 102.333 26.5649C103.245 26.5649 104.054 26.3826 104.76 26.0181C105.467 25.6535 106.059 25.118 106.538 24.4116C107.028 23.6938 107.398 22.8166 107.648 21.7798C107.899 20.743 108.024 19.5524 108.024 18.208ZM126.293 18.9087H119.936L119.902 15.5933H125.354C126.288 15.5933 127.068 15.4622 127.695 15.2002C128.321 14.9382 128.794 14.5565 129.113 14.0552C129.444 13.5539 129.609 12.9443 129.609 12.2266C129.609 11.429 129.455 10.7796 129.147 10.2783C128.851 9.77702 128.384 9.41243 127.746 9.18457C127.108 8.94531 126.299 8.82568 125.319 8.82568H121.457V30H116.757V5.11719H125.319C126.732 5.11719 127.991 5.25391 129.096 5.52734C130.213 5.78939 131.158 6.19954 131.933 6.75781C132.708 7.31608 133.295 8.01676 133.693 8.85986C134.104 9.70296 134.309 10.7056 134.309 11.8677C134.309 12.8931 134.069 13.8387 133.591 14.7046C133.124 15.5591 132.4 16.2541 131.42 16.7896C130.452 17.325 129.222 17.6326 127.729 17.7124L126.293 18.9087ZM126.088 30H118.552L120.517 26.3086H126.088C127.023 26.3086 127.792 26.1548 128.396 25.8472C129.011 25.5396 129.466 25.118 129.763 24.5825C130.07 24.0356 130.224 23.409 130.224 22.7026C130.224 21.9279 130.087 21.2557 129.814 20.686C129.552 20.1164 129.13 19.6777 128.549 19.3701C127.98 19.0625 127.228 18.9087 126.293 18.9087H121.406L121.44 15.5933H127.661L128.737 16.875C130.173 16.8864 131.341 17.1712 132.241 17.7295C133.152 18.2878 133.824 19.0055 134.257 19.8828C134.69 20.7601 134.907 21.7057 134.907 22.7197C134.907 24.3148 134.559 25.6535 133.864 26.7358C133.181 27.8182 132.178 28.6328 130.856 29.1797C129.546 29.7266 127.957 30 126.088 30ZM154.765 26.3086V30H142.255V26.3086H154.765ZM143.674 5.11719V30H138.974V5.11719H143.674ZM176.931 16.9263V18.208C176.931 20.0879 176.68 21.7798 176.179 23.2837C175.677 24.7762 174.965 26.0465 174.042 27.0947C173.12 28.1429 172.02 28.9461 170.744 29.5044C169.468 30.0627 168.05 30.3418 166.489 30.3418C164.951 30.3418 163.538 30.0627 162.25 29.5044C160.974 28.9461 159.869 28.1429 158.935 27.0947C158.001 26.0465 157.277 24.7762 156.765 23.2837C156.252 21.7798 155.996 20.0879 155.996 18.208V16.9263C155.996 15.035 156.252 13.3431 156.765 11.8506C157.277 10.3581 157.995 9.08773 158.918 8.03955C159.841 6.97998 160.94 6.17106 162.216 5.61279C163.504 5.05452 164.917 4.77539 166.455 4.77539C168.015 4.77539 169.434 5.05452 170.71 5.61279C171.986 6.17106 173.085 6.97998 174.008 8.03955C174.943 9.08773 175.66 10.3581 176.162 11.8506C176.674 13.3431 176.931 15.035 176.931 16.9263ZM172.18 18.208V16.8921C172.18 15.5363 172.054 14.3457 171.804 13.3203C171.553 12.2835 171.183 11.4119 170.693 10.7056C170.203 9.99919 169.599 9.4694 168.881 9.11621C168.164 8.75163 167.355 8.56934 166.455 8.56934C165.543 8.56934 164.734 8.75163 164.028 9.11621C163.333 9.4694 162.74 9.99919 162.25 10.7056C161.761 11.4119 161.385 12.2835 161.123 13.3203C160.872 14.3457 160.747 15.5363 160.747 16.8921V18.208C160.747 19.5524 160.872 20.743 161.123 21.7798C161.385 22.8166 161.761 23.6938 162.25 24.4116C162.752 25.118 163.356 25.6535 164.062 26.0181C164.768 26.3826 165.577 26.5649 166.489 26.5649C167.4 26.5649 168.209 26.3826 168.916 26.0181C169.622 25.6535 170.214 25.118 170.693 24.4116C171.183 23.6938 171.553 22.8166 171.804 21.7798C172.054 20.743 172.18 19.5524 172.18 18.208ZM184.279 5.11719L189.252 13.9868L194.243 5.11719H199.643L192.26 17.4561L199.831 30H194.379L189.252 20.9595L184.143 30H178.674L186.245 17.4561L178.862 5.11719H184.279ZM231.413 5.11719V30H226.713V8.82568H216.186V30H211.486V5.11719H231.413ZM240.471 23.5571L247.204 11.5088H251.733V30H247.204V17.9346L240.471 30H235.942V11.5088H240.471V23.5571ZM255.869 30V11.5088H260.397V26.4453H267.114V11.5088H271.66V30H255.869ZM274.292 26.4624L273.967 35.4858H269.78V30H267.644V26.4624H274.292ZM277.06 30V11.5088H281.589V26.4453H288.305V11.5088H292.851V30H277.06ZM295.483 26.4624L295.158 35.4858H290.971V30H288.835V26.4624H295.483ZM308.403 26.0693V17.5415C308.403 16.9149 308.295 16.3737 308.078 15.918C307.862 15.4622 307.531 15.109 307.087 14.8584C306.643 14.6077 306.079 14.4824 305.395 14.4824C304.791 14.4824 304.261 14.585 303.806 14.79C303.361 14.9951 303.02 15.2856 302.78 15.6616C302.541 16.0262 302.421 16.4478 302.421 16.9263H297.893C297.893 16.1629 298.075 15.4395 298.439 14.7559C298.804 14.0609 299.322 13.4456 299.995 12.9102C300.678 12.3633 301.493 11.936 302.438 11.6284C303.396 11.3208 304.466 11.167 305.651 11.167C307.053 11.167 308.3 11.4062 309.394 11.8848C310.499 12.3519 311.365 13.0583 311.992 14.0039C312.63 14.9495 312.949 16.1401 312.949 17.5757V25.6421C312.949 26.5649 313.006 27.3568 313.12 28.0176C313.245 28.667 313.427 29.231 313.667 29.7095V30H309.069C308.853 29.5329 308.688 28.9404 308.574 28.2227C308.46 27.4935 308.403 26.7757 308.403 26.0693ZM309.035 18.7378L309.069 21.4209H306.215C305.509 21.4209 304.888 21.495 304.353 21.6431C303.817 21.7798 303.378 21.9849 303.037 22.2583C302.695 22.5203 302.438 22.8394 302.268 23.2153C302.097 23.5799 302.011 23.9958 302.011 24.4629C302.011 24.9186 302.114 25.3288 302.319 25.6934C302.535 26.0579 302.843 26.3485 303.242 26.5649C303.652 26.77 304.13 26.8726 304.677 26.8726C305.475 26.8726 306.17 26.7131 306.762 26.394C307.355 26.0636 307.816 25.6649 308.146 25.1978C308.477 24.7306 308.653 24.2863 308.676 23.8647L309.975 25.813C309.816 26.2801 309.576 26.7757 309.257 27.2998C308.938 27.8239 308.528 28.3138 308.027 28.7695C307.526 29.2253 306.922 29.6012 306.215 29.8975C305.509 30.1937 304.689 30.3418 303.754 30.3418C302.558 30.3418 301.487 30.1025 300.542 29.624C299.596 29.1455 298.85 28.4904 298.303 27.6587C297.756 26.827 297.482 25.8813 297.482 24.8218C297.482 23.842 297.665 22.9761 298.029 22.2241C298.394 21.4722 298.935 20.8398 299.653 20.3271C300.371 19.8031 301.259 19.41 302.319 19.1479C303.39 18.8745 304.615 18.7378 305.993 18.7378H309.035Z" fill="black"/>
<path d="M69.8906 46.625V45.9922C69.8906 44.2057 70.3307 42.8255 71.2109 41.8516C72.0911 40.8776 73.1979 40.3906 74.5312 40.3906C75.8542 40.3906 76.875 40.7578 77.5938 41.4922C78.3177 42.2214 78.7083 43.1198 78.7656 44.1875V44.2734H77.5391V44.1875C77.4974 43.4375 77.2344 42.7969 76.75 42.2656C76.2708 41.7292 75.5312 41.4609 74.5312 41.4609C73.5365 41.4609 72.7188 41.8464 72.0781 42.6172C71.4427 43.3828 71.125 44.5078 71.125 45.9922V46.6328C71.125 48.0807 71.4427 49.1979 72.0781 49.9844C72.7135 50.7708 73.5312 51.1641 74.5312 51.1641C75.5104 51.1641 76.237 50.8958 76.7109 50.3594C77.1901 49.8177 77.4661 49.1771 77.5391 48.4375V48.3516H78.7656L78.7578 48.4453C78.6589 49.5078 78.2604 50.4062 77.5625 51.1406C76.8646 51.8698 75.8542 52.2344 74.5312 52.2344C73.1927 52.2344 72.0833 51.75 71.2031 50.7812C70.3281 49.8125 69.8906 48.4271 69.8906 46.625ZM80.4175 48.0391V47.7891C80.4175 46.5547 80.7508 45.5495 81.4175 44.7734C82.0894 43.9922 82.9774 43.6016 84.0816 43.6016C85.1857 43.6016 86.0321 43.9609 86.6206 44.6797C87.2144 45.3932 87.5112 46.3802 87.5112 47.6406V48.1406H81.1206V47.1797H86.3159V47.0625C86.3159 46.3229 86.131 45.7266 85.7612 45.2734C85.3967 44.8203 84.8472 44.5938 84.1128 44.5938C83.2899 44.5938 82.6675 44.8984 82.2456 45.5078C81.829 46.1172 81.6206 46.8776 81.6206 47.7891V48.0391C81.6206 48.9505 81.8394 49.7109 82.2769 50.3203C82.7144 50.9297 83.3967 51.2344 84.3237 51.2344C84.8654 51.2344 85.329 51.125 85.7144 50.9062C86.0998 50.6875 86.4175 50.4167 86.6675 50.0938L87.4409 50.7344C87.1805 51.1042 86.7873 51.4479 86.2612 51.7656C85.7352 52.0781 85.0894 52.2344 84.3237 52.2344C83.0633 52.2344 82.0972 51.8438 81.4253 51.0625C80.7534 50.2812 80.4175 49.2734 80.4175 48.0391ZM88.8194 44.7812V43.8281H95.4131V44.7812H92.71V52H91.5225V44.7812H88.8194ZM98.5259 43.8281V46.6875H100.581C101.586 46.6875 102.359 46.9271 102.901 47.4062C103.443 47.8802 103.713 48.5208 103.713 49.3281C103.713 50.1354 103.443 50.7839 102.901 51.2734C102.359 51.7578 101.586 52 100.581 52H97.3384V43.8281H98.5259ZM100.581 47.6328H98.5259V51.0469H100.581C101.289 51.0469 101.789 50.8854 102.081 50.5625C102.372 50.2396 102.518 49.8281 102.518 49.3281C102.518 48.8333 102.372 48.4271 102.081 48.1094C101.789 47.7917 101.289 47.6328 100.581 47.6328ZM110.22 43.8281H116.595V52H115.408V44.7812H111.408V52H110.22V43.8281ZM119.403 52V43.8281H120.575V49.3047C120.575 49.4609 120.573 49.6354 120.568 49.8281C120.568 50.0156 120.565 50.1849 120.56 50.3359H120.63C120.703 50.2057 120.784 50.0651 120.872 49.9141C120.961 49.763 121.054 49.6094 121.153 49.4531L124.763 43.8281H125.982V52H124.81V46.5312C124.81 46.375 124.812 46.1979 124.818 46C124.823 45.8021 124.831 45.625 124.841 45.4688H124.747C124.685 45.599 124.609 45.7448 124.521 45.9062C124.432 46.0625 124.336 46.2214 124.232 46.3828L120.622 52H119.403ZM135.212 54.1016V52H128.774V43.8281H129.954V51.0469H133.954V43.8281H135.141V51.0469H136.29V54.1016H135.212ZM144.551 54.1016V52H138.113V43.8281H139.293V51.0469H143.293V43.8281H144.481V51.0469H145.629V54.1016H144.551ZM146.961 48.0391V47.7891C146.961 46.5547 147.294 45.5495 147.961 44.7734C148.632 43.9922 149.521 43.6016 150.625 43.6016C151.729 43.6016 152.575 43.9609 153.164 44.6797C153.757 45.3932 154.054 46.3802 154.054 47.6406V48.1406H147.664V47.1797H152.859V47.0625C152.859 46.3229 152.674 45.7266 152.304 45.2734C151.94 44.8203 151.39 44.5938 150.656 44.5938C149.833 44.5938 149.211 44.8984 148.789 45.5078C148.372 46.1172 148.164 46.8776 148.164 47.7891V48.0391C148.164 48.9505 148.382 49.7109 148.82 50.3203C149.257 50.9297 149.94 51.2344 150.867 51.2344C151.409 51.2344 151.872 51.125 152.257 50.9062C152.643 50.6875 152.961 50.4167 153.211 50.0938L153.984 50.7344C153.724 51.1042 153.33 51.4479 152.804 51.7656C152.278 52.0781 151.632 52.2344 150.867 52.2344C149.606 52.2344 148.64 51.8438 147.968 51.0625C147.297 50.2812 146.961 49.2734 146.961 48.0391ZM156.245 55.2578V43.8281H157.323L157.37 44.9375H157.402C157.631 44.5938 157.974 44.2969 158.433 44.0469C158.891 43.7969 159.422 43.6719 160.027 43.6719C161.073 43.6719 161.904 44.0599 162.519 44.8359C163.133 45.612 163.441 46.5964 163.441 47.7891V48.0391C163.441 49.2318 163.133 50.2161 162.519 50.9922C161.904 51.7682 161.073 52.1562 160.027 52.1562C159.422 52.1562 158.904 52.0495 158.472 51.8359C158.045 51.6172 157.698 51.3359 157.433 50.9922V55.2578H156.245ZM157.433 49.7109C157.61 50.0911 157.899 50.4271 158.3 50.7188C158.701 51.0104 159.185 51.1562 159.753 51.1562C160.607 51.1615 161.232 50.8672 161.628 50.2734C162.029 49.6797 162.23 48.9349 162.23 48.0391V47.7891C162.23 46.8932 162.029 46.1484 161.628 45.5547C161.232 44.9609 160.607 44.6667 159.753 44.6719C159.185 44.6719 158.701 44.8177 158.3 45.1094C157.899 45.401 157.61 45.737 157.433 46.1172V49.7109ZM165.741 52V43.8281H166.913V49.3047C166.913 49.4609 166.91 49.6354 166.905 49.8281C166.905 50.0156 166.902 50.1849 166.897 50.3359H166.967C167.04 50.2057 167.121 50.0651 167.21 49.9141C167.298 49.763 167.392 49.6094 167.491 49.4531L171.1 43.8281H172.319V52H171.147V46.5312C171.147 46.375 171.15 46.1979 171.155 46C171.16 45.8021 171.168 45.625 171.178 45.4688H171.085C171.022 45.599 170.947 45.7448 170.858 45.9062C170.77 46.0625 170.673 46.2214 170.569 46.3828L166.96 52H165.741ZM175.127 52V43.8281H176.299V49.3047C176.299 49.4609 176.296 49.6354 176.291 49.8281C176.291 50.0156 176.289 50.1849 176.283 50.3359H176.354C176.427 50.2057 176.507 50.0651 176.596 49.9141C176.684 49.763 176.778 49.6094 176.877 49.4531L180.487 43.8281H181.705V52H180.533V46.5312C180.533 46.375 180.536 46.1979 180.541 46C180.546 45.8021 180.554 45.625 180.565 45.4688H180.471C180.408 45.599 180.333 45.7448 180.244 45.9062C180.156 46.0625 180.059 46.2214 179.955 46.3828L176.346 52H175.127ZM178.401 41.5625C178.786 41.5625 179.114 41.4453 179.385 41.2109C179.656 40.9766 179.864 40.6224 180.01 40.1484L180.924 40.6797C180.721 41.2682 180.395 41.7266 179.948 42.0547C179.5 42.3776 178.984 42.5391 178.401 42.5391C177.807 42.5391 177.289 42.3802 176.846 42.0625C176.408 41.7396 176.083 41.2786 175.869 40.6797L176.791 40.1328C176.942 40.6328 177.151 40.9974 177.416 41.2266C177.682 41.4505 178.01 41.5625 178.401 41.5625ZM188.853 52V43.8281H192.384C193.228 43.8281 193.894 44.0104 194.384 44.375C194.874 44.7396 195.118 45.2812 195.118 46C195.118 46.4688 194.98 46.8594 194.704 47.1719C194.434 47.4844 194.087 47.6849 193.665 47.7734V47.7969C194.202 47.875 194.629 48.0781 194.947 48.4062C195.264 48.7292 195.423 49.138 195.423 49.6328C195.423 50.3776 195.168 50.9583 194.658 51.375C194.152 51.7917 193.475 52 192.626 52H188.853ZM190.04 47.375H192.384C192.926 47.375 193.314 47.2578 193.548 47.0234C193.788 46.7891 193.908 46.4635 193.908 46.0469C193.908 45.651 193.788 45.3411 193.548 45.1172C193.314 44.8932 192.923 44.7812 192.376 44.7812H190.04V47.375ZM190.04 51.0469H192.626C193.173 51.0469 193.574 50.9193 193.829 50.6641C194.09 50.4036 194.22 50.0599 194.22 49.6328C194.22 49.237 194.09 48.9193 193.829 48.6797C193.569 48.4349 193.168 48.3125 192.626 48.3125H190.04V51.0469ZM202.391 52V40.625H206.024C207.253 40.625 208.19 40.9349 208.836 41.5547C209.482 42.1745 209.805 42.9974 209.805 44.0234C209.805 45.0547 209.482 45.8854 208.836 46.5156C208.19 47.1406 207.253 47.4531 206.024 47.4531H203.61V52H202.391ZM203.61 46.4219H206.024C206.966 46.4219 207.628 46.1953 208.008 45.7422C208.388 45.2839 208.578 44.7135 208.578 44.0312C208.578 43.3438 208.388 42.776 208.008 42.3281C207.628 41.8802 206.966 41.6562 206.024 41.6562H203.61V46.4219ZM211.332 48.0391V47.7891C211.332 46.5547 211.678 45.5495 212.371 44.7734C213.069 43.9922 213.999 43.6016 215.16 43.6016C216.327 43.6016 217.256 43.9922 217.949 44.7734C218.647 45.5495 218.996 46.5547 218.996 47.7891V48.0391C218.996 49.2734 218.647 50.2812 217.949 51.0625C217.256 51.8438 216.327 52.2344 215.16 52.2344C213.999 52.2344 213.069 51.8438 212.371 51.0625C211.678 50.2812 211.332 49.2734 211.332 48.0391ZM212.543 47.7891V48.0391C212.543 48.9453 212.764 49.7057 213.207 50.3203C213.65 50.9297 214.301 51.2344 215.16 51.2344C216.025 51.2344 216.678 50.9297 217.121 50.3203C217.564 49.7057 217.785 48.9453 217.785 48.0391V47.7891C217.785 46.8828 217.564 46.125 217.121 45.5156C216.683 44.901 216.03 44.5938 215.16 44.5938C214.295 44.5938 213.642 44.901 213.199 45.5156C212.762 46.125 212.543 46.8828 212.543 47.7891ZM220.796 48.0391V47.7891C220.796 46.5547 221.13 45.5495 221.796 44.7734C222.463 43.9922 223.38 43.6016 224.546 43.6016C225.624 43.6016 226.439 43.8932 226.992 44.4766C227.549 45.0599 227.827 45.7188 227.827 46.4531V46.5H226.679V46.4531C226.679 45.9479 226.51 45.513 226.171 45.1484C225.833 44.7786 225.291 44.5938 224.546 44.5938C223.682 44.5938 223.041 44.8984 222.624 45.5078C222.208 46.1172 221.999 46.8776 221.999 47.7891V48.0391C221.999 48.9505 222.208 49.7109 222.624 50.3203C223.046 50.9297 223.687 51.2344 224.546 51.2344C225.291 51.2344 225.833 51.0521 226.171 50.6875C226.51 50.3177 226.679 49.8802 226.679 49.375V49.3281H227.827V49.375C227.827 50.1094 227.549 50.7708 226.992 51.3594C226.439 51.9427 225.624 52.2344 224.546 52.2344C223.38 52.2344 222.463 51.8438 221.796 51.0625C221.13 50.2812 220.796 49.2734 220.796 48.0391ZM229.495 48.0391V47.7891C229.495 46.5547 229.828 45.5495 230.495 44.7734C231.162 43.9922 232.078 43.6016 233.245 43.6016C234.323 43.6016 235.138 43.8932 235.69 44.4766C236.248 45.0599 236.526 45.7188 236.526 46.4531V46.5H235.378V46.4531C235.378 45.9479 235.209 45.513 234.87 45.1484C234.531 44.7786 233.99 44.5938 233.245 44.5938C232.38 44.5938 231.74 44.8984 231.323 45.5078C230.906 46.1172 230.698 46.8776 230.698 47.7891V48.0391C230.698 48.9505 230.906 49.7109 231.323 50.3203C231.745 50.9297 232.386 51.2344 233.245 51.2344C233.99 51.2344 234.531 51.0521 234.87 50.6875C235.209 50.3177 235.378 49.8802 235.378 49.375V49.3281H236.526V49.375C236.526 50.1094 236.248 50.7708 235.69 51.3594C235.138 51.9427 234.323 52.2344 233.245 52.2344C232.078 52.2344 231.162 51.8438 230.495 51.0625C229.828 50.2812 229.495 49.2734 229.495 48.0391ZM238.702 52V43.8281H239.873V49.3047C239.873 49.4609 239.871 49.6354 239.866 49.8281C239.866 50.0156 239.863 50.1849 239.858 50.3359H239.928C240.001 50.2057 240.082 50.0651 240.17 49.9141C240.259 49.763 240.353 49.6094 240.452 49.4531L244.061 43.8281H245.28V52H244.108V46.5312C244.108 46.375 244.11 46.1979 244.116 46C244.121 45.8021 244.129 45.625 244.139 45.4688H244.045C243.983 45.599 243.907 45.7448 243.819 45.9062C243.73 46.0625 243.634 46.2214 243.53 46.3828L239.92 52H238.702ZM248.088 52V43.8281H249.26V49.3047C249.26 49.4609 249.257 49.6354 249.252 49.8281C249.252 50.0156 249.249 50.1849 249.244 50.3359H249.314C249.387 50.2057 249.468 50.0651 249.557 49.9141C249.645 49.763 249.739 49.6094 249.838 49.4531L253.447 43.8281H254.666V52H253.494V46.5312C253.494 46.375 253.497 46.1979 253.502 46C253.507 45.8021 253.515 45.625 253.525 45.4688H253.432C253.369 45.599 253.294 45.7448 253.205 45.9062C253.116 46.0625 253.02 46.2214 252.916 46.3828L249.307 52H248.088ZM261.306 48.0391V47.7891C261.306 46.5547 261.639 45.5495 262.306 44.7734C262.972 43.9922 263.889 43.6016 265.056 43.6016C266.134 43.6016 266.949 43.8932 267.501 44.4766C268.058 45.0599 268.337 45.7188 268.337 46.4531V46.5H267.188V46.4531C267.188 45.9479 267.019 45.513 266.681 45.1484C266.342 44.7786 265.8 44.5938 265.056 44.5938C264.191 44.5938 263.55 44.8984 263.134 45.5078C262.717 46.1172 262.509 46.8776 262.509 47.7891V48.0391C262.509 48.9505 262.717 49.7109 263.134 50.3203C263.556 50.9297 264.196 51.2344 265.056 51.2344C265.8 51.2344 266.342 51.0521 266.681 50.6875C267.019 50.3177 267.188 49.8802 267.188 49.375V49.3281H268.337V49.375C268.337 50.1094 268.058 50.7708 267.501 51.3594C266.949 51.9427 266.134 52.2344 265.056 52.2344C263.889 52.2344 262.972 51.8438 262.306 51.0625C261.639 50.2812 261.306 49.2734 261.306 48.0391ZM274.5 52V51.0781L278.742 46.6328C279.273 46.0755 279.688 45.5573 279.984 45.0781C280.281 44.5938 280.43 44.0677 280.43 43.5C280.43 42.9531 280.234 42.4714 279.844 42.0547C279.453 41.6328 278.906 41.4219 278.203 41.4219C277.49 41.4271 276.896 41.6458 276.422 42.0781C275.953 42.5104 275.719 43.1172 275.719 43.8984V44H274.508V43.9062C274.508 42.8698 274.857 42.026 275.555 41.375C276.253 40.7188 277.135 40.3906 278.203 40.3906C279.25 40.3906 280.086 40.6979 280.711 41.3125C281.336 41.9219 281.648 42.6328 281.648 43.4453C281.648 44.1953 281.451 44.8724 281.055 45.4766C280.664 46.0755 280.159 46.6953 279.539 47.3359L276.055 50.9453H281.992V52H274.5ZM283.988 48.3203V44.3047C283.988 43.1068 284.306 42.1562 284.941 41.4531C285.576 40.7448 286.459 40.3906 287.589 40.3906C288.714 40.3906 289.595 40.7448 290.23 41.4531C290.871 42.1562 291.191 43.1068 291.191 44.3047V48.3203C291.191 49.5234 290.871 50.4766 290.23 51.1797C289.595 51.8828 288.714 52.2344 287.589 52.2344C286.459 52.2292 285.576 51.8776 284.941 51.1797C284.306 50.4766 283.988 49.5234 283.988 48.3203ZM285.222 48.3906C285.222 49.2292 285.417 49.9089 285.808 50.4297C286.204 50.9453 286.798 51.2031 287.589 51.2031C288.381 51.2031 288.975 50.9453 289.371 50.4297C289.766 49.9089 289.964 49.2292 289.964 48.3906V44.25C289.964 43.4167 289.766 42.737 289.371 42.2109C288.975 41.6849 288.381 41.4219 287.589 41.4219C286.798 41.4219 286.204 41.6849 285.808 42.2109C285.417 42.737 285.222 43.4167 285.222 44.25V48.3906ZM293.366 52V51.0781L297.608 46.6328C298.14 46.0755 298.554 45.5573 298.851 45.0781C299.148 44.5938 299.296 44.0677 299.296 43.5C299.296 42.9531 299.101 42.4714 298.71 42.0547C298.319 41.6328 297.773 41.4219 297.069 41.4219C296.356 41.4271 295.762 41.6458 295.288 42.0781C294.819 42.5104 294.585 43.1172 294.585 43.8984V44H293.374V43.9062C293.374 42.8698 293.723 42.026 294.421 41.375C295.119 40.7188 296.002 40.3906 297.069 40.3906C298.116 40.3906 298.952 40.6979 299.577 41.3125C300.202 41.9219 300.515 42.6328 300.515 43.4453C300.515 44.1953 300.317 44.8724 299.921 45.4766C299.53 46.0755 299.025 46.6953 298.405 47.3359L294.921 50.9453H300.858V52H293.366ZM302.596 49.0391V48.9453H303.784V49.0312C303.784 49.7188 304.021 50.2526 304.495 50.6328C304.969 51.013 305.581 51.2031 306.331 51.2031C307.065 51.2031 307.669 51.0156 308.143 50.6406C308.617 50.2604 308.854 49.6875 308.854 48.9219C308.854 48.1354 308.586 47.5495 308.049 47.1641C307.518 46.7734 306.844 46.5781 306.026 46.5781H305.065V45.5625H305.94C306.711 45.5625 307.32 45.3776 307.768 45.0078C308.221 44.6328 308.448 44.1172 308.448 43.4609C308.448 42.7839 308.253 42.276 307.862 41.9375C307.471 41.5938 306.961 41.4219 306.331 41.4219C305.685 41.4219 305.151 41.599 304.729 41.9531C304.312 42.3021 304.104 42.7865 304.104 43.4062V43.5156H302.917V43.4062C302.917 42.5573 303.239 41.8438 303.885 41.2656C304.531 40.6823 305.346 40.3906 306.331 40.3906C307.305 40.3906 308.104 40.6719 308.729 41.2344C309.359 41.7917 309.674 42.5156 309.674 43.4062C309.674 43.9479 309.518 44.4557 309.206 44.9297C308.898 45.3984 308.427 45.763 307.792 46.0234V46.0547C308.463 46.2109 309.016 46.5339 309.448 47.0234C309.88 47.513 310.096 48.1484 310.096 48.9297C310.096 49.9297 309.737 50.7318 309.018 51.3359C308.305 51.9349 307.409 52.2344 306.331 52.2344C305.226 52.2344 304.328 51.9401 303.635 51.3516C302.943 50.763 302.596 49.9922 302.596 49.0391Z" fill="black"/>
<path d="M28.3924 28.856L46.4084 10.524C41.7976 5.8324 35.4281 2.93066 28.3924 2.93066C14.3211 2.93066 2.91406 14.5377 2.91406 28.856C2.91406 43.2163 14.2796 54.7814 28.3925 54.7814C42.1181 54.7814 53.3088 43.7375 53.8503 29.9061C53.8728 29.3339 53.426 28.856 52.8633 28.856H28.3924Z" fill="#C39774"/>
<path opacity="0.15" d="M41.5226 10.4006C42.0278 10.4006 42.4374 9.9839 42.4374 9.46984C42.4374 8.95579 42.0278 8.53906 41.5226 8.53906C41.0174 8.53906 40.6079 8.95579 40.6079 9.46984C40.6079 9.9839 41.0174 10.4006 41.5226 10.4006Z" fill="black"/>
<path opacity="0.15" d="M24.4216 6.29906C24.9268 6.29906 25.3363 5.88233 25.3363 5.36828C25.3363 4.85422 24.9268 4.4375 24.4216 4.4375C23.9164 4.4375 23.5068 4.85422 23.5068 5.36828C23.5068 5.88233 23.9164 6.29906 24.4216 6.29906Z" fill="black"/>
<path opacity="0.15" d="M11.132 16.4748C11.6372 16.4748 12.0467 16.0581 12.0467 15.5441C12.0467 15.03 11.6372 14.6133 11.132 14.6133C10.6268 14.6133 10.2173 15.03 10.2173 15.5441C10.2173 16.0581 10.6268 16.4748 11.132 16.4748Z" fill="black"/>
<path opacity="0.15" d="M7.51141 40.2903C8.0166 40.2903 8.42614 39.8735 8.42614 39.3595C8.42614 38.8454 8.0166 38.4287 7.51141 38.4287C7.00622 38.4287 6.59668 38.8454 6.59668 39.3595C6.59668 39.8735 7.00622 40.2903 7.51141 40.2903Z" fill="black"/>
<path opacity="0.15" d="M23.507 50.7873C24.0122 50.7873 24.4217 50.3706 24.4217 49.8566C24.4217 49.3425 24.0122 48.9258 23.507 48.9258C23.0018 48.9258 22.5923 49.3425 22.5923 49.8566C22.5923 50.3706 23.0018 50.7873 23.507 50.7873Z" fill="black"/>
<path opacity="0.15" d="M39.5114 50.4153C40.0166 50.4153 40.4261 49.9985 40.4261 49.4845C40.4261 48.9704 40.0166 48.5537 39.5114 48.5537C39.0062 48.5537 38.5967 48.9704 38.5967 49.4845C38.5967 49.9985 39.0062 50.4153 39.5114 50.4153Z" fill="black"/>
<path opacity="0.15" d="M49.8244 38.6799C50.3296 38.6799 50.7391 38.2632 50.7391 37.7491C50.7391 37.2351 50.3296 36.8184 49.8244 36.8184C49.3192 36.8184 48.9097 37.2351 48.9097 37.7491C48.9097 38.2632 49.3192 38.6799 49.8244 38.6799Z" fill="black"/>
<path d="M7.75488 28.8553C7.75488 40.4532 16.9948 49.8553 28.3928 49.8553C39.7907 49.8553 49.0306 40.4532 49.0306 28.8553H28.3927L42.9858 14.0061C39.2512 10.206 34.0917 7.85547 28.3927 7.85547C16.9948 7.85547 7.75488 17.2574 7.75488 28.8553Z" fill="#FDD05F"/>
<path opacity="0.1" d="M28.3928 7.85547C16.9948 7.85547 7.75488 17.2575 7.75488 28.8554C7.75488 29.1379 7.76191 29.4187 7.77286 29.6984C8.20787 18.4915 17.2724 9.54161 28.3927 9.54161C33.6699 9.54161 38.4839 11.5582 42.1329 14.8741L42.9857 14.0063C39.2512 10.2059 34.0917 7.85547 28.3928 7.85547Z" fill="black"/>
<path d="M37.5986 28.8555C37.5986 30.7178 39.0824 32.2276 40.9127 32.2276C42.7429 32.2276 44.2267 30.7178 44.2267 28.8555H37.5986Z" fill="#DE2A4E"/>
<path d="M40.574 16.4613C39.2798 15.1444 37.1813 15.1444 35.8872 16.4613C34.593 17.7782 34.593 19.9134 35.8872 21.2303L40.574 16.4613Z" fill="#DE2A4E"/>
<path d="M30.8018 17.9846C32.6319 17.9846 34.1154 16.475 34.1154 14.6129C34.1154 12.7508 32.6319 11.2412 30.8018 11.2412C28.9718 11.2412 27.4883 12.7508 27.4883 14.6129C27.4883 16.475 28.9718 17.9846 30.8018 17.9846Z" fill="#DE2A4E"/>
<path d="M17.5167 22.1428C19.3467 22.1428 20.8303 20.6332 20.8303 18.7711C20.8303 16.909 19.3467 15.3994 17.5167 15.3994C15.6867 15.3994 14.2031 16.909 14.2031 18.7711C14.2031 20.6332 15.6867 22.1428 17.5167 22.1428Z" fill="#DE2A4E"/>
<path d="M14.4474 30.9934C16.2774 30.9934 17.7609 29.4838 17.7609 27.6217C17.7609 25.7596 16.2774 24.25 14.4474 24.25C12.6173 24.25 11.1338 25.7596 11.1338 27.6217C11.1338 29.4838 12.6173 30.9934 14.4474 30.9934Z" fill="#DE2A4E"/>
<path d="M25.7779 26.3098C27.608 26.3098 29.0915 24.8002 29.0915 22.9381C29.0915 21.076 27.608 19.5664 25.7779 19.5664C23.9479 19.5664 22.4644 21.076 22.4644 22.9381C22.4644 24.8002 23.9479 26.3098 25.7779 26.3098Z" fill="#DE2A4E"/>
<path d="M17.7608 41.3733C19.5909 41.3733 21.0744 39.8637 21.0744 38.0016C21.0744 36.1394 19.5909 34.6299 17.7608 34.6299C15.9308 34.6299 14.4473 36.1394 14.4473 38.0016C14.4473 39.8637 15.9308 41.3733 17.7608 41.3733Z" fill="#DE2A4E"/>
<path d="M27.4869 38.0002C29.3169 38.0002 30.8005 36.4907 30.8005 34.6285C30.8005 32.7664 29.3169 31.2568 27.4869 31.2568C25.6569 31.2568 24.1733 32.7664 24.1733 34.6285C24.1733 36.4907 25.6569 38.0002 27.4869 38.0002Z" fill="#DE2A4E"/>
<path d="M29.0343 47.1457C30.8643 47.1457 32.3478 45.6362 32.3478 43.774C32.3478 41.9119 30.8643 40.4023 29.0343 40.4023C27.2042 40.4023 25.7207 41.9119 25.7207 43.774C25.7207 45.6362 27.2042 47.1457 29.0343 47.1457Z" fill="#DE2A4E"/>
<path d="M39.5118 41.3733C41.3418 41.3733 42.8254 39.8637 42.8254 38.0016C42.8254 36.1394 41.3418 34.6299 39.5118 34.6299C37.6818 34.6299 36.1982 36.1394 36.1982 38.0016C36.1982 39.8637 37.6818 41.3733 39.5118 41.3733Z" fill="#DE2A4E"/>
<path opacity="0.15" d="M38.8893 38.3049C39.3945 38.3049 39.8041 37.8882 39.8041 37.3741C39.8041 36.8601 39.3945 36.4434 38.8893 36.4434C38.3841 36.4434 37.9746 36.8601 37.9746 37.3741C37.9746 37.8882 38.3841 38.3049 38.8893 38.3049Z" fill="black"/>
<path opacity="0.15" d="M27.6911 36.1145C28.1963 36.1145 28.6058 35.6978 28.6058 35.1837C28.6058 34.6697 28.1963 34.2529 27.6911 34.2529C27.1859 34.2529 26.7764 34.6697 26.7764 35.1837C26.7764 35.6978 27.1859 36.1145 27.6911 36.1145Z" fill="black"/>
<path opacity="0.15" d="M40.4264 31.0119C40.9316 31.0119 41.3412 30.5952 41.3412 30.0812C41.3412 29.5671 40.9316 29.1504 40.4264 29.1504C39.9213 29.1504 39.5117 29.5671 39.5117 30.0812C39.5117 30.5952 39.9213 31.0119 40.4264 31.0119Z" fill="black"/>
<path opacity="0.15" d="M30.6374 16.4748C31.1426 16.4748 31.5521 16.0581 31.5521 15.5441C31.5521 15.03 31.1426 14.6133 30.6374 14.6133C30.1322 14.6133 29.7227 15.03 29.7227 15.5441C29.7227 16.0581 30.1322 16.4748 30.6374 16.4748Z" fill="black"/>
<path opacity="0.15" d="M15.3615 28.1721C15.8667 28.1721 16.2762 27.7554 16.2762 27.2413C16.2762 26.7273 15.8667 26.3105 15.3615 26.3105C14.8563 26.3105 14.4468 26.7273 14.4468 27.2413C14.4468 27.7554 14.8563 28.1721 15.3615 28.1721Z" fill="black"/>
<path opacity="0.15" d="M17.2048 38.6799C17.71 38.6799 18.1195 38.2632 18.1195 37.7491C18.1195 37.2351 17.71 36.8184 17.2048 36.8184C16.6996 36.8184 16.29 37.2351 16.29 37.7491C16.29 38.2632 16.6996 38.6799 17.2048 38.6799Z" fill="black"/>
<path opacity="0.1" d="M45.3179 9.47852L31.0093 24.0381H33.1274L46.4092 10.5233C46.056 10.1639 45.6912 9.81621 45.3179 9.47852Z" fill="black"/>
<path d="M41.1055 26.8064C40.3866 26.8064 39.8037 26.2133 39.8037 25.4817V22.5127H42.4072V25.4817C42.4072 26.2133 41.8245 26.8064 41.1055 26.8064Z" fill="#FDD05F"/>
<path d="M46.4751 25.8136C45.7562 25.8136 45.1733 25.2205 45.1733 24.4889V22.5127H47.7768V24.4889C47.7768 25.2205 47.1941 25.8136 46.4751 25.8136Z" fill="#FDD05F"/>
<path d="M53.3596 4.94006C52.9773 4.5184 52.3291 4.5 51.9304 4.9057L49.2201 7.66356L34.627 22.5128H59.0977C59.6593 22.5128 60.1072 22.0366 60.0849 21.4655C59.8363 15.098 57.3307 9.32086 53.3596 4.94006Z" fill="#C39774"/>
<path opacity="0.15" d="M54.7707 11.051C55.2759 11.051 55.6854 10.6343 55.6854 10.1202C55.6854 9.60618 55.2759 9.18945 54.7707 9.18945C54.2655 9.18945 53.856 9.60618 53.856 10.1202C53.856 10.6343 54.2655 11.051 54.7707 11.051Z" fill="black"/>
<path d="M55.2649 22.5123C55.2649 16.7133 52.9549 11.4634 49.2202 7.66309L34.627 22.5123H55.2649Z" fill="#FDD05F"/>
<path d="M50.4591 22.5128C50.4591 20.6504 48.9753 19.1406 47.1451 19.1406C45.3148 19.1406 43.8311 20.6504 43.8311 22.5128H50.4591Z" fill="#DE2A4E"/>
<path d="M42.1201 14.8872C43.4143 16.2041 45.5127 16.2041 46.8069 14.8872C48.1011 13.5703 48.1011 11.4351 46.8069 10.1182L42.1201 14.8872Z" fill="#DE2A4E"/>
<path opacity="0.1" d="M42.4077 22.5137H39.8042V23.7181H42.4077V22.5137Z" fill="black"/>
<path opacity="0.1" d="M47.7773 22.5137H45.1738V23.7181H47.7773V22.5137Z" fill="black"/>
<path d="M54.0316 4.30948C53.68 3.92171 53.1816 3.69306 52.6645 3.68239C52.1402 3.67266 51.6522 3.87258 51.2833 4.24803L46.3968 9.22039C41.4939 4.55806 35.1372 2 28.3932 2C21.3434 2 14.7155 4.79351 9.73038 9.86601C4.74534 14.9385 2 21.6826 2 28.8561C2 36.0501 4.73993 42.7999 9.71483 47.8621C14.69 52.9244 21.3233 55.7122 28.3932 55.7122C35.2569 55.7122 41.7586 53.0446 46.7007 48.2009C51.6292 43.3704 54.4931 36.8864 54.7649 29.9433C54.7855 29.4174 54.5919 28.8983 54.2341 28.5193C53.8724 28.1364 53.3859 27.9254 52.864 27.9254H30.6013L35.0056 23.4439H38.8895V25.4822C38.8895 26.7258 39.8839 27.7375 41.1059 27.7375C42.3281 27.7375 43.3224 26.7257 43.3224 25.4822V23.4439H44.2595V24.4894C44.2595 25.733 45.2538 26.7447 46.4759 26.7447C47.698 26.7447 48.6923 25.7329 48.6923 24.4894V23.4439H59.0974C59.6197 23.4439 60.1067 23.2328 60.4687 22.8495C60.826 22.4713 61.019 21.9535 60.9985 21.4291C60.7503 15.0718 58.276 8.99198 54.0316 4.30948ZM52.8639 29.7869C52.8721 29.7869 52.894 29.7869 52.9149 29.809C52.9304 29.8254 52.9378 29.8456 52.9367 29.8691C52.6838 36.3301 50.0183 42.3643 45.4314 46.8601C40.8319 51.368 34.781 53.8506 28.3929 53.8506C21.8117 53.8506 15.6376 51.2565 11.0081 46.5457C6.37902 41.8352 3.82935 35.5528 3.82935 28.8561C3.82935 15.0739 14.8486 3.86156 28.3931 3.86156C34.6482 3.86156 40.5469 6.22497 45.1037 10.5362L42.9717 12.7056C38.9849 8.97205 33.8438 6.92569 28.3929 6.92569C16.5089 6.92569 6.84042 16.7637 6.84042 28.8563C6.84042 40.9489 16.5089 50.787 28.3929 50.787C39.9705 50.787 49.4436 41.4495 49.9246 29.787H52.8639V29.7869ZM33.9799 21.8551C33.9797 21.8552 33.9796 21.8553 33.9795 21.8554L27.7465 28.1978C27.4849 28.464 27.4065 28.8643 27.5482 29.2121C27.6898 29.56 28.0232 29.7866 28.3932 29.7866H48.0945C47.615 40.4225 38.962 48.9252 28.3932 48.9252C17.5178 48.9252 8.67 39.9222 8.67 28.856C8.67 17.7897 17.5177 8.78702 28.3931 8.78702C33.3552 8.78702 38.0373 10.6398 41.6775 14.0224L33.9799 21.8551ZM41.4929 25.4823C41.4929 25.6994 41.3192 25.8761 41.1058 25.8761C40.8924 25.8761 40.7188 25.6994 40.7188 25.4823V23.444H41.4929V25.4823ZM46.8628 24.4895C46.8628 24.7066 46.6892 24.8833 46.4758 24.8833C46.2623 24.8833 46.0887 24.7066 46.0887 24.4895V23.444H46.8628V24.4895ZM36.8348 21.5826L47.0557 11.1823C47.0557 11.1823 47.0558 11.1822 47.056 11.1821L49.2046 8.99573C52.324 12.4714 54.1188 16.8804 54.3284 21.5826H36.8348ZM59.1496 21.5597C59.1281 21.5826 59.105 21.5826 59.0973 21.5826H56.1587C55.9468 16.3833 53.962 11.5077 50.4988 7.67871L52.5768 5.56423C52.5826 5.55837 52.5983 5.54266 52.6275 5.54348C52.6505 5.54395 52.6703 5.55344 52.6868 5.5715H52.6867C56.6368 9.92921 58.9395 15.5872 59.1704 21.503C59.1709 21.5112 59.1719 21.5361 59.1496 21.5597Z" fill="black"/>
</g>
<defs>
<clipPath id="clip0_602_8">
<rect width="320" height="58" fill="white"/>
</clipPath>
</defs>
</svg>
